# xmcd
#
# Track frame offsets:
# 150
# 33375
# 62625
# 82200
# 104250
# 156112
# 196725
# 216650
#
# Disc length: 3248 seconds
#
# Revision: 1
# Processed by: cddbd v1.5.2PL0 Copyright (c) Steve Scherf et al.
# Submitted via: CedeCatalogueitor 2.6.0.6 http://personales.ya.com/cdcatalogueitor
#
DISCID=6e0cae08
DTITLE=W.A.Mozart - Sinfonia Nº 29, Sinfonia Nº 39
DYEAR=1988
DGENRE=
TTITLE0=Allegro Moderato
TTITLE1=Andante
TTITLE2=Menueto Trio
TTITLE3=Allegro Con Spirito
TTITLE4=Adaggio-Allegro
TTITLE5=Andane Con Moto
TTITLE6=Menueto Allegro Trio
TTITLE7=Finale
EXTD=
EXTT0=
EXTT1=
EXTT2=
EXTT3=
EXTT4=
EXTT5=
EXTT6=
EXTT7=
PLAYORDER=
